<?xml version="1.0" standalone="no"?>
<!DOCTYPE svg PUBLIC "-//W3C//DTD SVG 20010904//EN"
 "http://www.w3.org/TR/2001/REC-SVG-20010904/DTD/svg10.dtd">
<svg version="1.0" xmlns="http://www.w3.org/2000/svg"
 width="800.000000pt" height="800.000000pt" viewBox="0 0 800.000000 800.000000"
 preserveAspectRatio="xMidYMid meet">
<metadata>
Created by potrace 1.11, written by Peter Selinger 2001-2013
</metadata>
<g transform="translate(0.000000,800.000000) scale(0.100000,-0.100000)"
fill="#000000" stroke="none">
<path d="M0 4000 l0 -4000 4000 0 4000 0 0 4000 0 4000 -4000 0 -4000 0 0
-4000z m2095 3804 c19 -12 28 -13 45 -4 13 7 37 9 59 5 20 -3 61 -5 91 -4 30
1 199 3 375 4 176 2 345 5 375 8 32 3 70 0 92 -7 26 -9 54 -10 104 -4 45 6 81
6 104 -1 25 -7 64 -6 138 4 72 9 123 10 174 4 49 -6 83 -5 109 3 28 8 45 8 66
0 19 -8 73 -9 173 -4 80 4 160 5 178 1 17 -4 49 -3 70 2 23 5 51 4 73 -2 23
-7 47 -8 70 -2 19 6 46 6 62 2 42 -11 188 -11 335 2 108 9 138 9 165 -2 17 -8
34 -13 37 -12 13 4 311 16 366 15 34 -1 72 -6 85 -10 13 -5 37 -6 54 -1 56 14
119 15 225 4 113 -13 188 -11 262 6 101 23 201 -9 231 -74 15 -33 33 -124 27
-142 -11 -36 -17 -688 -7 -724 6 -23 6 -45 -2 -70 -10 -29 -10 -42 2 -69 9
-21 11 -48 7 -76 -3 -23 -4 -67 -2 -97 2 -29 3 -65 2 -79 0 -14 -2 -54 -3 -90
-2 -36 -6 -77 -11 -92 -5 -16 -3 -41 3 -61 16 -47 17 -169 3 -247 -13 -74 -9
-282 6 -320 7 -19 6 -38 -5 -70 -11 -31 -13 -59 -8 -95 10 -63 10 -161 0 -348
-6 -112 -5 -154 5 -172 8 -16 11 -47 7 -97 -14 -176 -18 -450 -7 -463 6 -8 11
-26 10 -42 -1 -31 -1 -804 0 -843 0 -14 -2 -63 -5 -110 -3 -47 -5 -112 -3
-145 1 -33 1 -77 0 -97 -5 -104 -6 -356 -3 -703 5 -439 5 -436 2 -470 -1 -16
0 -77 2 -135 3 -58 1 -135 -4 -172 -7 -52 -5 -74 6 -103 14 -32 14 -39 -1 -70
-14 -29 -14 -44 -5 -98 16 -92 14 -134 -10 -207 -37 -110 -63 -162 -99 -201
-19 -20 -50 -57 -68 -83 -18 -26 -51 -55 -74 -67 -46 -24 -91 -53 -125 -83
-23 -19 -179 -66 -222 -66 -13 0 -36 -11 -52 -25 -16 -13 -46 -27 -67 -30 -36
-6 -76 -20 -212 -72 -90 -35 -220 -73 -250 -74 -14 -1 -54 -15 -89 -33 -35
-17 -89 -34 -120 -37 -70 -9 -169 -44 -198 -71 -11 -11 -41 -22 -65 -25 -23
-3 -54 -14 -67 -24 -13 -11 -40 -19 -60 -19 -20 0 -67 -14 -106 -30 -38 -17
-84 -30 -102 -30 -18 0 -70 -18 -115 -40 -96 -46 -152 -51 -226 -20 -26 10
-66 24 -88 30 -23 5 -47 16 -53 24 -7 8 -47 22 -89 31 -42 9 -89 25 -104 36
-15 10 -46 23 -70 29 -104 23 -183 51 -204 71 -17 16 -29 19 -52 14 -35 -7
-102 11 -178 49 -28 13 -80 32 -115 41 -103 26 -162 47 -187 66 -13 10 -37 21
-55 24 -49 10 -179 54 -208 70 -15 8 -44 14 -65 13 -22 0 -57 8 -79 19 -22 11
-73 32 -114 47 -40 15 -85 34 -100 44 -14 9 -52 30 -83 46 -76 39 -135 98
-167 166 -15 31 -36 69 -48 86 -12 17 -24 48 -27 70 -2 21 -12 66 -20 99 -9
33 -15 87 -15 120 1 33 0 98 0 145 -2 147 -2 220 -1 313 4 177 3 216 -8 243
-10 24 -10 42 3 98 13 56 14 81 5 148 -6 44 -8 92 -5 107 3 15 2 46 -3 68 -7
29 -5 49 5 74 10 24 11 40 3 59 -6 15 -8 79 -5 165 7 171 7 182 4 220 -1 17
-1 46 -1 65 1 90 2 132 2 158 1 15 -1 81 -4 147 -3 66 -5 131 -5 145 1 31 1
75 0 115 -1 17 1 77 4 135 3 58 5 159 3 225 -2 114 -1 222 3 283 1 15 -1 41
-4 57 -2 17 -1 39 3 50 6 17 -3 262 -14 375 -2 14 3 36 9 50 16 34 18 130 4
220 -14 91 -12 256 4 280 8 14 8 29 -1 58 -7 22 -10 46 -7 53 13 37 12 99 -1
145 -15 47 -14 54 1 84 15 29 15 35 1 64 -13 27 -13 43 -4 97 6 35 11 96 11
134 0 39 -1 178 -1 310 -1 327 -1 337 -6 530 -5 210 -5 266 1 530 3 116 4 245
4 288 -2 128 33 168 153 178 122 10 136 9 161 -7z"/>
<path d="M2582 7554 c-15 -10 -43 -14 -94 -12 -40 1 -152 1 -248 0 -136 -3
-178 -6 -190 -18 -20 -20 -30 -255 -12 -297 10 -24 10 -53 3 -121 -10 -104
-10 -104 -9 -211 2 -71 2 -233 1 -350 0 -22 -2 -56 -3 -75 -3 -42 -4 -97 -2
-210 1 -47 2 -112 2 -145 0 -33 0 -98 1 -145 0 -47 1 -97 0 -112 0 -16 -1 -49
-1 -75 -4 -171 -2 -206 9 -241 11 -33 11 -49 -3 -105 -13 -53 -15 -78 -7 -129
9 -57 13 -128 12 -228 -1 -54 -9 -393 -10 -410 -1 -8 1 -69 3 -135 3 -74 0
-125 -6 -132 -6 -8 -7 -23 -2 -40 5 -16 10 -73 11 -128 1 -55 2 -115 3 -132 1
-34 1 -83 1 -150 0 -21 -3 -87 -5 -148 -3 -60 -4 -153 -3 -205 1 -52 1 -131 0
-175 -1 -44 -2 -93 -2 -110 1 -16 1 -46 0 -65 0 -157 4 -278 13 -362 6 -50 4
-73 -7 -95 -16 -30 -15 -181 2 -258 12 -53 5 -208 -10 -236 -8 -16 -8 -31 0
-58 8 -24 9 -58 3 -101 -6 -49 -4 -75 7 -107 14 -38 13 -46 -2 -78 -16 -33
-16 -37 0 -61 14 -23 15 -34 4 -97 -14 -79 -14 -97 -7 -333 4 -154 6 -164 35
-224 17 -35 39 -69 50 -76 11 -8 25 -30 31 -49 9 -26 21 -39 48 -51 20 -8 46
-23 57 -34 19 -18 65 -32 146 -45 21 -3 42 -12 49 -20 7 -8 31 -20 54 -26 22
-5 88 -28 146 -49 58 -21 134 -46 170 -55 35 -9 77 -23 93 -32 16 -8 41 -13
55 -10 31 6 94 -15 142 -47 19 -13 69 -32 110 -41 41 -9 83 -23 92 -32 9 -8
66 -26 126 -39 60 -13 139 -37 176 -54 37 -16 82 -30 100 -30 19 0 46 -11 66
-25 19 -14 41 -25 49 -25 9 0 54 -12 100 -26 79 -26 85 -26 111 -11 16 10 39
17 52 17 12 0 45 12 73 25 31 15 58 22 73 18 16 -4 33 2 53 16 16 12 50 26 76
31 94 18 178 42 194 56 9 8 38 22 65 31 27 9 58 22 70 30 32 21 123 45 144 38
11 -3 55 9 105 30 47 19 91 35 98 35 7 0 44 15 83 34 38 18 90 37 115 40 85
12 104 17 119 31 26 23 92 46 195 67 156 32 189 48 283 141 92 90 112 120 112
167 0 17 4 39 9 49 6 10 13 98 18 197 8 205 8 236 1 434 -3 83 -1 154 5 167 7
15 5 27 -5 41 -11 16 -13 54 -11 169 2 81 5 175 8 208 6 95 6 105 -6 192 -10
65 -10 96 0 150 19 96 18 302 0 346 -9 22 -9 37 1 68 15 44 16 94 3 188 -5 38
-5 88 0 120 16 97 17 293 1 323 -9 17 -12 45 -8 80 2 29 10 141 15 248 10 178
10 197 -6 227 -12 22 -15 41 -10 60 4 15 6 44 6 63 -1 19 -2 49 -2 65 0 17 0
80 -1 140 -1 61 -1 121 0 135 1 25 2 341 1 415 -1 22 2 123 5 225 4 102 6 194
6 205 -3 161 -3 292 0 425 1 25 2 65 2 90 1 25 -2 234 -5 465 -3 231 -3 436 2
455 5 24 3 45 -8 68 -13 28 -13 37 -1 65 17 41 15 112 -5 143 -26 40 -54 48
-180 51 -66 2 -176 6 -245 8 -172 6 -218 5 -245 -5 -15 -6 -69 -5 -138 1 -63
5 -125 6 -138 2 -13 -5 -145 -7 -294 -5 -148 2 -292 3 -320 4 -27 0 -65 -2
-83 -5 -19 -3 -52 0 -75 6 -28 8 -70 9 -127 4 -89 -8 -142 -10 -175 -9 -97 5
-393 6 -640 1 -257 -4 -339 -4 -415 2 -19 1 -82 1 -141 -1 -63 -2 -113 2 -125
8 -16 8 -26 8 -42 -4z m382 -570 c35 -12 60 -14 94 -9 58 10 159 10 365 0 114
-6 161 -5 170 4 6 6 31 11 55 11 37 0 50 -6 78 -34 l35 -35 -2 -209 c-1 -151
3 -220 12 -246 11 -29 11 -43 0 -71 -10 -28 -10 -42 0 -70 9 -25 10 -43 2 -68
-13 -43 5 -92 38 -102 13 -5 49 -7 80 -6 31 1 67 -3 80 -8 13 -5 44 -6 69 -2
25 4 62 4 83 0 41 -6 85 10 102 39 5 9 11 73 12 142 2 69 5 153 7 186 2 34 0
80 -5 102 -6 29 -5 49 5 73 10 24 11 40 4 59 -13 33 -3 152 16 189 20 37 62
51 146 50 36 -1 82 -2 103 -2 20 0 83 0 140 -1 56 0 138 0 182 1 44 1 96 1
115 0 19 0 76 2 125 5 109 7 140 -1 185 -47 l35 -36 2 -177 c1 -97 5 -191 8
-208 5 -21 2 -40 -8 -55 -13 -20 -13 -33 -4 -79 12 -62 13 -129 5 -305 -4 -66
-6 -149 -5 -185 0 -36 0 -74 -1 -85 -1 -11 -3 -47 -5 -80 -2 -33 0 -71 5 -85
14 -36 10 -187 -7 -240 -4 -12 0 -35 8 -53 11 -23 13 -44 8 -74 -5 -24 -7 -66
-5 -95 7 -124 4 -386 -4 -409 -5 -13 -5 -35 -1 -49 11 -38 10 -139 -1 -160 -7
-14 -7 -33 1 -64 10 -39 8 -50 -7 -83 -31 -61 -67 -79 -180 -86 -76 -4 -104
-2 -126 9 -24 12 -35 13 -63 3 -26 -10 -42 -10 -74 -1 -30 9 -57 10 -111 1
-40 -6 -88 -8 -108 -4 -20 4 -93 8 -162 9 -137 2 -157 8 -190 62 -28 44 -37
221 -26 499 8 178 6 205 -9 236 -17 33 -23 35 -144 49 -73 8 -102 8 -124 -1
-23 -10 -39 -10 -77 0 -55 14 -80 6 -105 -33 -14 -20 -18 -89 -16 -261 0 -39
0 -101 -1 -140 0 -22 1 -51 2 -65 2 -29 -17 -264 -25 -298 -8 -35 -79 -62
-178 -69 -63 -4 -90 -2 -112 9 -25 13 -57 14 -203 7 -95 -5 -176 -10 -180 -13
-4 -2 -41 2 -82 9 -55 10 -85 11 -112 3 -50 -15 -99 -3 -133 32 -31 32 -32 42
-25 220 2 47 -2 118 -9 159 -9 50 -11 100 -5 160 4 47 7 100 6 116 -4 53 -3
307 2 380 2 39 4 104 4 145 0 41 0 115 1 163 1 48 -3 104 -8 124 -8 26 -7 44
3 68 11 25 11 36 1 55 -9 17 -11 76 -7 229 3 113 4 229 2 256 -7 120 -4 248 9
360 12 105 17 123 38 143 13 12 36 22 51 22 20 0 92 20 108 30 0 0 22 -7 48
-16z m1233 -3049 c19 -8 56 -15 82 -15 25 -1 57 -7 71 -15 14 -8 45 -15 70
-15 25 0 72 -12 105 -25 33 -14 78 -25 101 -25 30 0 46 -6 64 -25 13 -14 42
-30 64 -36 23 -6 67 -30 98 -54 31 -24 74 -53 95 -63 38 -20 193 -181 193
-201 0 -5 27 -46 60 -89 33 -44 60 -86 60 -94 0 -7 9 -21 20 -31 32 -27 27
-88 -11 -132 -17 -19 -37 -35 -44 -35 -7 0 -46 -28 -86 -61 -51 -43 -116 -82
-214 -129 -84 -41 -161 -87 -193 -114 -30 -25 -60 -46 -68 -46 -7 0 -39 -12
-71 -26 -100 -45 -164 -30 -203 47 -12 22 -36 57 -55 78 -19 20 -39 50 -45 65
-14 38 -79 65 -161 67 -36 1 -74 -3 -85 -8 -10 -6 -34 -13 -53 -17 -56 -10
-138 -63 -146 -93 -3 -15 -20 -42 -36 -60 -17 -20 -29 -45 -29 -62 0 -16 -6
-44 -13 -62 -21 -52 5 -275 36 -319 9 -14 32 -47 50 -75 44 -67 87 -87 207
-96 100 -7 100 -7 195 45 17 9 35 16 40 16 19 0 65 50 71 78 10 43 72 131 104
147 47 24 89 18 154 -21 33 -19 84 -48 115 -64 31 -15 62 -38 69 -49 7 -12 19
-21 27 -21 29 0 143 -58 154 -78 6 -12 25 -22 50 -26 28 -4 47 -15 63 -36 13
-17 58 -48 98 -69 93 -47 122 -84 117 -150 -2 -40 -12 -58 -71 -134 -38 -48
-77 -104 -86 -125 -9 -20 -32 -52 -51 -70 -108 -103 -187 -170 -208 -177 -13
-4 -58 -29 -99 -56 -41 -27 -82 -49 -91 -49 -9 0 -62 -23 -116 -51 -88 -45
-105 -51 -145 -46 -35 4 -50 1 -69 -14 -18 -15 -40 -19 -100 -20 -42 0 -124
-4 -183 -8 -74 -5 -131 -3 -180 5 -40 7 -95 14 -123 14 -27 1 -68 8 -90 16
-22 9 -71 24 -109 35 -100 29 -214 80 -245 110 -14 15 -42 32 -61 38 -22 7
-78 52 -147 119 -62 59 -123 115 -137 124 -13 10 -27 31 -31 48 -4 16 -11 32
-16 36 -26 16 -90 110 -100 147 -6 23 -20 54 -31 69 -10 15 -22 45 -25 65 -3
21 -17 54 -30 73 -12 19 -23 44 -23 56 0 12 -7 41 -16 65 -40 115 -50 543 -13
614 10 18 13 40 9 55 -4 14 1 54 12 93 21 78 129 299 155 319 30 22 73 85 73
107 0 24 119 161 169 194 20 13 64 41 97 61 34 20 83 55 108 78 47 44 113 76
154 77 13 1 38 12 55 25 18 13 48 27 67 31 19 4 55 16 79 28 37 17 69 21 198
24 84 3 175 10 201 18 63 17 58 17 99 0z"/>
<path d="M3072 6726 c-73 -20 -89 -45 -105 -171 -8 -71 -10 -124 -5 -150 5
-21 6 -56 3 -77 -4 -21 -1 -52 6 -73 10 -27 10 -42 1 -67 -15 -45 -16 -102 -2
-172 9 -44 9 -80 0 -149 -18 -132 -18 -285 -2 -309 10 -13 12 -38 7 -86 -16
-180 -19 -446 -4 -474 6 -11 8 -36 5 -57 -4 -20 -6 -47 -6 -61 1 -14 1 -65 0
-114 -1 -49 4 -101 10 -116 19 -46 48 -53 264 -56 l199 -3 31 35 c26 30 31 45
34 97 3 74 5 153 3 222 0 28 0 132 2 233 l2 183 48 46 c47 44 50 45 95 39 26
-3 92 -5 147 -4 55 1 215 2 355 2 282 1 292 -1 325 -63 17 -33 21 -134 10
-232 -5 -45 -4 -69 4 -73 15 -10 13 -66 -3 -95 -11 -20 -11 -36 1 -95 9 -47
12 -100 8 -156 -5 -79 -4 -88 16 -109 21 -22 27 -23 123 -19 77 4 108 2 130
-9 23 -12 36 -13 71 -3 33 9 51 9 84 -1 38 -11 44 -10 69 8 18 14 30 34 36 64
13 70 18 580 5 605 -7 13 -8 46 -5 85 6 53 7 325 3 519 0 25 0 72 1 105 0 33
1 80 1 105 1 75 -1 252 -4 382 -2 73 1 136 8 156 11 31 9 35 -28 72 l-40 39
-100 2 c-55 1 -149 -3 -209 -9 -91 -10 -114 -16 -143 -37 l-33 -26 4 -142 c2
-78 7 -160 11 -182 3 -22 1 -69 -5 -105 -14 -78 -14 -68 0 -157 10 -66 9 -76
-10 -112 -30 -59 -60 -71 -176 -69 -55 0 -134 -5 -176 -12 -51 -8 -99 -10
-145 -4 -37 4 -90 7 -118 6 -241 -11 -319 0 -345 48 -9 17 -22 427 -19 580 1
71 0 86 -9 133 -5 26 -14 53 -21 60 -7 7 -48 13 -99 14 -145 4 -216 8 -242 15
-14 3 -44 1 -68 -6z"/>
<path d="M3921 3674 c-15 -7 -74 -19 -131 -28 -65 -10 -112 -24 -130 -36 -16
-11 -32 -20 -36 -20 -4 0 -15 -6 -23 -14 -9 -8 -72 -44 -141 -81 -132 -70
-172 -101 -197 -150 -9 -16 -41 -53 -72 -81 -31 -28 -61 -62 -68 -75 -57 -118
-94 -205 -104 -245 -6 -27 -23 -67 -38 -88 -26 -39 -26 -42 -28 -240 -2 -157
1 -209 12 -238 8 -22 12 -50 9 -68 -4 -20 1 -47 15 -79 11 -27 21 -58 21 -69
0 -27 74 -166 120 -227 21 -27 41 -62 45 -77 4 -15 20 -36 36 -46 16 -10 50
-42 75 -72 49 -58 95 -91 184 -130 30 -13 67 -35 81 -48 15 -13 58 -32 99 -43
39 -10 88 -29 108 -41 34 -21 49 -23 212 -24 205 -1 337 8 409 30 29 8 58 13
66 9 9 -3 46 13 83 35 37 22 84 43 104 47 22 4 43 17 56 35 13 17 34 30 58 34
25 5 52 23 84 54 57 56 133 150 143 175 14 37 -15 68 -108 114 -49 25 -105 58
-123 74 -18 16 -43 29 -56 29 -12 0 -33 11 -46 25 -13 14 -34 25 -46 25 -21 0
-93 -52 -102 -73 -13 -28 -58 -67 -85 -73 -17 -3 -45 -17 -62 -29 -47 -35
-105 -53 -175 -54 -36 -1 -74 -2 -85 -2 -63 -2 -159 16 -225 42 -58 23 -89 43
-140 92 -95 92 -177 237 -189 335 -4 31 -13 67 -20 80 -7 13 -10 35 -6 52 4
16 3 35 -1 42 -19 30 -3 144 36 257 35 103 44 118 94 168 30 30 60 70 66 88 9
27 27 43 87 79 41 25 92 50 112 56 20 5 106 10 191 11 139 1 160 -1 195 -19
22 -11 49 -29 59 -41 11 -12 30 -21 44 -21 14 0 38 -14 57 -32 18 -18 53 -48
79 -66 40 -29 52 -33 85 -27 49 8 150 67 208 123 25 23 57 45 72 48 47 10 51
13 61 39 22 58 14 77 -70 163 -57 58 -88 82 -105 82 -16 0 -34 12 -52 35 -15
19 -40 37 -55 40 -15 4 -61 24 -103 46 -42 21 -88 39 -102 39 -14 0 -56 9 -92
19 -36 11 -90 22 -119 25 -30 4 -62 11 -72 16 -24 13 -225 8 -259 -6z"/>
</g>
</svg>
